<mxfile host="Electron" modified="2023-10-20T00:30:59.782Z" agent="Mozilla/5.0 (Macintosh; Intel Mac OS X 10_15_7) AppleWebKit/537.36 (KHTML, like Gecko) draw.io/22.0.3 Chrome/114.0.5735.289 Electron/25.8.4 Safari/537.36" etag="eznN4vJaYTF6l_Y68iQQ" version="22.0.3" type="device">
  <diagram name="Página-1" id="BmBMGIrfv2WmDZ4eUASm">
    <mxGraphModel dx="72" dy="1737" grid="1" gridSize="10" guides="1" tooltips="1" connect="1" arrows="1" fold="1" page="0" pageScale="1" pageWidth="827" pageHeight="1169" math="0" shadow="0">
      <root>
        <mxCell id="0" />
        <mxCell id="1" parent="0" />
        <mxCell id="FzabC8vqsWaqZOw50s2N-5" style="edgeStyle=orthogonalEdgeStyle;rounded=0;orthogonalLoop=1;jettySize=auto;html=1;" parent="1" source="FzabC8vqsWaqZOw50s2N-1" target="FzabC8vqsWaqZOw50s2N-4" edge="1">
          <mxGeometry relative="1" as="geometry" />
        </mxCell>
        <mxCell id="FzabC8vqsWaqZOw50s2N-1" value="Actor" style="shape=umlActor;verticalLabelPosition=bottom;verticalAlign=top;html=1;outlineConnect=0;" parent="1" vertex="1">
          <mxGeometry x="1440" y="462" width="30" height="60" as="geometry" />
        </mxCell>
        <mxCell id="FzabC8vqsWaqZOw50s2N-7" value="" style="edgeStyle=orthogonalEdgeStyle;rounded=0;orthogonalLoop=1;jettySize=auto;html=1;" parent="1" source="FzabC8vqsWaqZOw50s2N-4" target="FzabC8vqsWaqZOw50s2N-6" edge="1">
          <mxGeometry relative="1" as="geometry" />
        </mxCell>
        <mxCell id="FzabC8vqsWaqZOw50s2N-4" value="Inicia login/cadastro de usuário" style="rounded=1;whiteSpace=wrap;html=1;" parent="1" vertex="1">
          <mxGeometry x="1560" y="462" width="120" height="60" as="geometry" />
        </mxCell>
        <mxCell id="FzabC8vqsWaqZOw50s2N-9" value="" style="edgeStyle=orthogonalEdgeStyle;rounded=0;orthogonalLoop=1;jettySize=auto;html=1;" parent="1" source="FzabC8vqsWaqZOw50s2N-6" target="FzabC8vqsWaqZOw50s2N-8" edge="1">
          <mxGeometry relative="1" as="geometry" />
        </mxCell>
        <mxCell id="FzabC8vqsWaqZOw50s2N-11" value="" style="edgeStyle=orthogonalEdgeStyle;rounded=0;orthogonalLoop=1;jettySize=auto;html=1;" parent="1" source="FzabC8vqsWaqZOw50s2N-6" target="FzabC8vqsWaqZOw50s2N-10" edge="1">
          <mxGeometry relative="1" as="geometry" />
        </mxCell>
        <mxCell id="FzabC8vqsWaqZOw50s2N-6" value="Hoteleiro ou cliente?" style="rhombus;whiteSpace=wrap;html=1;rounded=1;" parent="1" vertex="1">
          <mxGeometry x="1580" y="592" width="80" height="80" as="geometry" />
        </mxCell>
        <mxCell id="FzabC8vqsWaqZOw50s2N-15" value="" style="edgeStyle=orthogonalEdgeStyle;rounded=0;orthogonalLoop=1;jettySize=auto;html=1;" parent="1" source="FzabC8vqsWaqZOw50s2N-8" target="FzabC8vqsWaqZOw50s2N-14" edge="1">
          <mxGeometry relative="1" as="geometry" />
        </mxCell>
        <mxCell id="FzabC8vqsWaqZOw50s2N-8" value="Pede informações de contato, documentação, e dados do hotel" style="whiteSpace=wrap;html=1;rounded=1;" parent="1" vertex="1">
          <mxGeometry x="1790" y="602" width="120" height="60" as="geometry" />
        </mxCell>
        <mxCell id="FzabC8vqsWaqZOw50s2N-17" value="" style="edgeStyle=orthogonalEdgeStyle;rounded=0;orthogonalLoop=1;jettySize=auto;html=1;" parent="1" source="FzabC8vqsWaqZOw50s2N-10" target="FzabC8vqsWaqZOw50s2N-16" edge="1">
          <mxGeometry relative="1" as="geometry" />
        </mxCell>
        <mxCell id="FzabC8vqsWaqZOw50s2N-10" value="Pede informações de contato" style="whiteSpace=wrap;html=1;rounded=1;" parent="1" vertex="1">
          <mxGeometry x="1560" y="762" width="120" height="60" as="geometry" />
        </mxCell>
        <mxCell id="FzabC8vqsWaqZOw50s2N-12" value="cliente" style="text;html=1;align=center;verticalAlign=middle;resizable=0;points=[];autosize=1;strokeColor=none;fillColor=none;" parent="1" vertex="1">
          <mxGeometry x="1610" y="700" width="60" height="30" as="geometry" />
        </mxCell>
        <mxCell id="FzabC8vqsWaqZOw50s2N-13" value="hoteleiro" style="text;html=1;align=center;verticalAlign=middle;resizable=0;points=[];autosize=1;strokeColor=none;fillColor=none;" parent="1" vertex="1">
          <mxGeometry x="1685" y="610" width="70" height="30" as="geometry" />
        </mxCell>
        <mxCell id="FzabC8vqsWaqZOw50s2N-14" value="Utiliza o csv para inserir em massa" style="whiteSpace=wrap;html=1;rounded=1;" parent="1" vertex="1">
          <mxGeometry x="1790" y="492" width="120" height="60" as="geometry" />
        </mxCell>
        <mxCell id="FzabC8vqsWaqZOw50s2N-19" value="" style="edgeStyle=orthogonalEdgeStyle;rounded=0;orthogonalLoop=1;jettySize=auto;html=1;" parent="1" source="FzabC8vqsWaqZOw50s2N-16" target="FzabC8vqsWaqZOw50s2N-18" edge="1">
          <mxGeometry relative="1" as="geometry" />
        </mxCell>
        <mxCell id="FzabC8vqsWaqZOw50s2N-16" value="Inicia Sessão de Reservas" style="ellipse;whiteSpace=wrap;html=1;rounded=1;" parent="1" vertex="1">
          <mxGeometry x="1580" y="892" width="80" height="80" as="geometry" />
        </mxCell>
        <mxCell id="FzabC8vqsWaqZOw50s2N-21" value="" style="edgeStyle=orthogonalEdgeStyle;rounded=0;orthogonalLoop=1;jettySize=auto;html=1;" parent="1" source="FzabC8vqsWaqZOw50s2N-18" target="FzabC8vqsWaqZOw50s2N-20" edge="1">
          <mxGeometry relative="1" as="geometry" />
        </mxCell>
        <mxCell id="FzabC8vqsWaqZOw50s2N-18" value="Visualiza um catalogo de hotéis disponíveis" style="whiteSpace=wrap;html=1;rounded=1;" parent="1" vertex="1">
          <mxGeometry x="1720" y="902" width="120" height="60" as="geometry" />
        </mxCell>
        <mxCell id="FzabC8vqsWaqZOw50s2N-34" value="" style="edgeStyle=orthogonalEdgeStyle;rounded=0;orthogonalLoop=1;jettySize=auto;html=1;" parent="1" source="FzabC8vqsWaqZOw50s2N-20" target="FzabC8vqsWaqZOw50s2N-33" edge="1">
          <mxGeometry relative="1" as="geometry" />
        </mxCell>
        <mxCell id="FzabC8vqsWaqZOw50s2N-20" value="Seleciona o hotel desejado" style="whiteSpace=wrap;html=1;rounded=1;" parent="1" vertex="1">
          <mxGeometry x="1920" y="902" width="120" height="60" as="geometry" />
        </mxCell>
        <mxCell id="FzabC8vqsWaqZOw50s2N-25" value="" style="edgeStyle=orthogonalEdgeStyle;rounded=0;orthogonalLoop=1;jettySize=auto;html=1;" parent="1" source="FzabC8vqsWaqZOw50s2N-22" target="FzabC8vqsWaqZOw50s2N-24" edge="1">
          <mxGeometry relative="1" as="geometry" />
        </mxCell>
        <mxCell id="FzabC8vqsWaqZOw50s2N-27" value="" style="edgeStyle=orthogonalEdgeStyle;rounded=0;orthogonalLoop=1;jettySize=auto;html=1;" parent="1" source="FzabC8vqsWaqZOw50s2N-22" target="FzabC8vqsWaqZOw50s2N-26" edge="1">
          <mxGeometry relative="1" as="geometry" />
        </mxCell>
        <mxCell id="FzabC8vqsWaqZOw50s2N-22" value="Está disponível na data desejada?" style="rhombus;whiteSpace=wrap;html=1;rounded=1;" parent="1" vertex="1">
          <mxGeometry x="1930" y="1182" width="100" height="100" as="geometry" />
        </mxCell>
        <mxCell id="FzabC8vqsWaqZOw50s2N-39" value="" style="edgeStyle=orthogonalEdgeStyle;rounded=0;orthogonalLoop=1;jettySize=auto;html=1;" parent="1" source="FzabC8vqsWaqZOw50s2N-24" target="FzabC8vqsWaqZOw50s2N-38" edge="1">
          <mxGeometry relative="1" as="geometry" />
        </mxCell>
        <mxCell id="FzabC8vqsWaqZOw50s2N-24" value="Cria uma reserva" style="whiteSpace=wrap;html=1;rounded=1;" parent="1" vertex="1">
          <mxGeometry x="2190" y="1202" width="120" height="60" as="geometry" />
        </mxCell>
        <mxCell id="FzabC8vqsWaqZOw50s2N-37" style="edgeStyle=orthogonalEdgeStyle;rounded=0;orthogonalLoop=1;jettySize=auto;html=1;" parent="1" source="FzabC8vqsWaqZOw50s2N-26" target="FzabC8vqsWaqZOw50s2N-18" edge="1">
          <mxGeometry relative="1" as="geometry" />
        </mxCell>
        <mxCell id="FzabC8vqsWaqZOw50s2N-26" value="Não inicia a reserva" style="whiteSpace=wrap;html=1;rounded=1;" parent="1" vertex="1">
          <mxGeometry x="1920" y="1382" width="120" height="60" as="geometry" />
        </mxCell>
        <mxCell id="FzabC8vqsWaqZOw50s2N-28" value="sim" style="text;html=1;align=center;verticalAlign=middle;resizable=0;points=[];autosize=1;strokeColor=none;fillColor=none;" parent="1" vertex="1">
          <mxGeometry x="2090" y="1202" width="40" height="30" as="geometry" />
        </mxCell>
        <mxCell id="FzabC8vqsWaqZOw50s2N-31" value="não" style="text;html=1;align=center;verticalAlign=middle;resizable=0;points=[];autosize=1;strokeColor=none;fillColor=none;" parent="1" vertex="1">
          <mxGeometry x="1980" y="1302" width="40" height="30" as="geometry" />
        </mxCell>
        <mxCell id="FzabC8vqsWaqZOw50s2N-36" style="edgeStyle=orthogonalEdgeStyle;rounded=0;orthogonalLoop=1;jettySize=auto;html=1;" parent="1" source="FzabC8vqsWaqZOw50s2N-33" target="FzabC8vqsWaqZOw50s2N-22" edge="1">
          <mxGeometry relative="1" as="geometry" />
        </mxCell>
        <mxCell id="FzabC8vqsWaqZOw50s2N-33" value="Visualiza informações do hotel." style="whiteSpace=wrap;html=1;rounded=1;" parent="1" vertex="1">
          <mxGeometry x="1920" y="1042" width="120" height="60" as="geometry" />
        </mxCell>
        <mxCell id="FzabC8vqsWaqZOw50s2N-41" value="" style="edgeStyle=orthogonalEdgeStyle;rounded=0;orthogonalLoop=1;jettySize=auto;html=1;" parent="1" source="FzabC8vqsWaqZOw50s2N-38" target="FzabC8vqsWaqZOw50s2N-40" edge="1">
          <mxGeometry relative="1" as="geometry" />
        </mxCell>
        <mxCell id="FzabC8vqsWaqZOw50s2N-38" value="Pagar reserva" style="whiteSpace=wrap;html=1;rounded=1;" parent="1" vertex="1">
          <mxGeometry x="2390" y="1202" width="120" height="60" as="geometry" />
        </mxCell>
        <mxCell id="FzabC8vqsWaqZOw50s2N-40" value="Salva data&amp;nbsp; de entrada e saida utilizada no hotel" style="ellipse;whiteSpace=wrap;html=1;rounded=1;" parent="1" vertex="1">
          <mxGeometry x="2610" y="1192" width="80" height="80" as="geometry" />
        </mxCell>
        <mxCell id="Dz1jmlQof7M3VyDFqwy3-3" style="edgeStyle=orthogonalEdgeStyle;rounded=0;orthogonalLoop=1;jettySize=auto;html=1;" edge="1" parent="1" source="FzabC8vqsWaqZOw50s2N-47" target="FzabC8vqsWaqZOw50s2N-84">
          <mxGeometry relative="1" as="geometry" />
        </mxCell>
        <mxCell id="FzabC8vqsWaqZOw50s2N-47" value="&amp;lt;&amp;lt; abstract &amp;gt;&amp;gt;&lt;br&gt;User" style="swimlane;fontStyle=1;align=center;verticalAlign=top;childLayout=stackLayout;horizontal=1;startSize=40;horizontalStack=0;resizeParent=1;resizeParentMax=0;resizeLast=0;collapsible=1;marginBottom=0;whiteSpace=wrap;html=1;" parent="1" vertex="1">
          <mxGeometry x="1810" y="-630" width="160" height="308" as="geometry" />
        </mxCell>
        <mxCell id="Dz1jmlQof7M3VyDFqwy3-5" value="- name: String" style="text;strokeColor=none;fillColor=none;align=left;verticalAlign=top;spacingLeft=4;spacingRight=4;overflow=hidden;rotatable=0;points=[[0,0.5],[1,0.5]];portConstraint=eastwest;whiteSpace=wrap;html=1;" vertex="1" parent="FzabC8vqsWaqZOw50s2N-47">
          <mxGeometry y="40" width="160" height="26" as="geometry" />
        </mxCell>
        <mxCell id="FzabC8vqsWaqZOw50s2N-72" value="- cpf: String" style="text;strokeColor=none;fillColor=none;align=left;verticalAlign=top;spacingLeft=4;spacingRight=4;overflow=hidden;rotatable=0;points=[[0,0.5],[1,0.5]];portConstraint=eastwest;whiteSpace=wrap;html=1;" parent="FzabC8vqsWaqZOw50s2N-47" vertex="1">
          <mxGeometry y="66" width="160" height="26" as="geometry" />
        </mxCell>
        <mxCell id="FzabC8vqsWaqZOw50s2N-48" value="- birthday: Date" style="text;strokeColor=none;fillColor=none;align=left;verticalAlign=top;spacingLeft=4;spacingRight=4;overflow=hidden;rotatable=0;points=[[0,0.5],[1,0.5]];portConstraint=eastwest;whiteSpace=wrap;html=1;" parent="FzabC8vqsWaqZOw50s2N-47" vertex="1">
          <mxGeometry y="92" width="160" height="26" as="geometry" />
        </mxCell>
        <mxCell id="FzabC8vqsWaqZOw50s2N-73" value="- contact: Contact" style="text;strokeColor=none;fillColor=none;align=left;verticalAlign=top;spacingLeft=4;spacingRight=4;overflow=hidden;rotatable=0;points=[[0,0.5],[1,0.5]];portConstraint=eastwest;whiteSpace=wrap;html=1;" parent="FzabC8vqsWaqZOw50s2N-47" vertex="1">
          <mxGeometry y="118" width="160" height="26" as="geometry" />
        </mxCell>
        <mxCell id="FzabC8vqsWaqZOw50s2N-49" value="" style="line;strokeWidth=1;fillColor=none;align=left;verticalAlign=middle;spacingTop=-1;spacingLeft=3;spacingRight=3;rotatable=0;labelPosition=right;points=[];portConstraint=eastwest;strokeColor=inherit;" parent="FzabC8vqsWaqZOw50s2N-47" vertex="1">
          <mxGeometry y="144" width="160" height="8" as="geometry" />
        </mxCell>
        <mxCell id="FzabC8vqsWaqZOw50s2N-50" value="+ getAge(): int" style="text;strokeColor=none;fillColor=none;align=left;verticalAlign=top;spacingLeft=4;spacingRight=4;overflow=hidden;rotatable=0;points=[[0,0.5],[1,0.5]];portConstraint=eastwest;whiteSpace=wrap;html=1;" parent="FzabC8vqsWaqZOw50s2N-47" vertex="1">
          <mxGeometry y="152" width="160" height="26" as="geometry" />
        </mxCell>
        <mxCell id="Dz1jmlQof7M3VyDFqwy3-7" value="+&amp;nbsp;getName&lt;span style=&quot;background-color: initial;&quot;&gt;():&amp;nbsp;&lt;/span&gt;String" style="text;strokeColor=none;fillColor=none;align=left;verticalAlign=top;spacingLeft=4;spacingRight=4;overflow=hidden;rotatable=0;points=[[0,0.5],[1,0.5]];portConstraint=eastwest;whiteSpace=wrap;html=1;" vertex="1" parent="FzabC8vqsWaqZOw50s2N-47">
          <mxGeometry y="178" width="160" height="26" as="geometry" />
        </mxCell>
        <mxCell id="Dz1jmlQof7M3VyDFqwy3-9" value="+&amp;nbsp;getCpf&lt;span style=&quot;background-color: initial;&quot;&gt;(): String&lt;/span&gt;" style="text;strokeColor=none;fillColor=none;align=left;verticalAlign=top;spacingLeft=4;spacingRight=4;overflow=hidden;rotatable=0;points=[[0,0.5],[1,0.5]];portConstraint=eastwest;whiteSpace=wrap;html=1;" vertex="1" parent="FzabC8vqsWaqZOw50s2N-47">
          <mxGeometry y="204" width="160" height="26" as="geometry" />
        </mxCell>
        <mxCell id="Dz1jmlQof7M3VyDFqwy3-8" value="+&amp;nbsp;getContact&lt;span style=&quot;background-color: initial;&quot;&gt;():&amp;nbsp;&lt;/span&gt;String" style="text;strokeColor=none;fillColor=none;align=left;verticalAlign=top;spacingLeft=4;spacingRight=4;overflow=hidden;rotatable=0;points=[[0,0.5],[1,0.5]];portConstraint=eastwest;whiteSpace=wrap;html=1;" vertex="1" parent="FzabC8vqsWaqZOw50s2N-47">
          <mxGeometry y="230" width="160" height="26" as="geometry" />
        </mxCell>
        <mxCell id="Dz1jmlQof7M3VyDFqwy3-10" value="+&amp;nbsp;getBirthDate&lt;span style=&quot;background-color: initial;&quot;&gt;(): Date&lt;/span&gt;" style="text;strokeColor=none;fillColor=none;align=left;verticalAlign=top;spacingLeft=4;spacingRight=4;overflow=hidden;rotatable=0;points=[[0,0.5],[1,0.5]];portConstraint=eastwest;whiteSpace=wrap;html=1;" vertex="1" parent="FzabC8vqsWaqZOw50s2N-47">
          <mxGeometry y="256" width="160" height="26" as="geometry" />
        </mxCell>
        <mxCell id="Dz1jmlQof7M3VyDFqwy3-6" value="static - isValidCPF&lt;span style=&quot;background-color: initial;&quot;&gt;(): bool&lt;/span&gt;" style="text;strokeColor=none;fillColor=none;align=left;verticalAlign=top;spacingLeft=4;spacingRight=4;overflow=hidden;rotatable=0;points=[[0,0.5],[1,0.5]];portConstraint=eastwest;whiteSpace=wrap;html=1;" vertex="1" parent="FzabC8vqsWaqZOw50s2N-47">
          <mxGeometry y="282" width="160" height="26" as="geometry" />
        </mxCell>
        <mxCell id="FzabC8vqsWaqZOw50s2N-100" style="edgeStyle=orthogonalEdgeStyle;rounded=0;orthogonalLoop=1;jettySize=auto;html=1;" parent="1" source="FzabC8vqsWaqZOw50s2N-51" target="FzabC8vqsWaqZOw50s2N-47" edge="1">
          <mxGeometry relative="1" as="geometry" />
        </mxCell>
        <mxCell id="Dz1jmlQof7M3VyDFqwy3-19" style="edgeStyle=orthogonalEdgeStyle;rounded=0;orthogonalLoop=1;jettySize=auto;html=1;" edge="1" parent="1" source="FzabC8vqsWaqZOw50s2N-51" target="FzabC8vqsWaqZOw50s2N-63">
          <mxGeometry relative="1" as="geometry" />
        </mxCell>
        <mxCell id="FzabC8vqsWaqZOw50s2N-51" value="Host" style="swimlane;fontStyle=1;align=center;verticalAlign=top;childLayout=stackLayout;horizontal=1;startSize=26;horizontalStack=0;resizeParent=1;resizeParentMax=0;resizeLast=0;collapsible=1;marginBottom=0;whiteSpace=wrap;html=1;" parent="1" vertex="1">
          <mxGeometry x="1777.5" y="-136" width="225" height="154" as="geometry" />
        </mxCell>
        <mxCell id="Dz1jmlQof7M3VyDFqwy3-63" value="- reservation&lt;span style=&quot;background-color: initial;&quot;&gt;():&amp;nbsp;ArrayList&amp;lt;Reservation&amp;gt;&lt;/span&gt;" style="text;strokeColor=none;fillColor=none;align=left;verticalAlign=top;spacingLeft=4;spacingRight=4;overflow=hidden;rotatable=0;points=[[0,0.5],[1,0.5]];portConstraint=eastwest;whiteSpace=wrap;html=1;" vertex="1" parent="FzabC8vqsWaqZOw50s2N-51">
          <mxGeometry y="26" width="225" height="24" as="geometry" />
        </mxCell>
        <mxCell id="Dz1jmlQof7M3VyDFqwy3-12" value="- maxReservationNumber&lt;span style=&quot;background-color: initial;&quot;&gt;(): int&lt;/span&gt;" style="text;strokeColor=none;fillColor=none;align=left;verticalAlign=top;spacingLeft=4;spacingRight=4;overflow=hidden;rotatable=0;points=[[0,0.5],[1,0.5]];portConstraint=eastwest;whiteSpace=wrap;html=1;" vertex="1" parent="FzabC8vqsWaqZOw50s2N-51">
          <mxGeometry y="50" width="225" height="24" as="geometry" />
        </mxCell>
        <mxCell id="FzabC8vqsWaqZOw50s2N-53" value="" style="line;strokeWidth=1;fillColor=none;align=left;verticalAlign=middle;spacingTop=-1;spacingLeft=3;spacingRight=3;rotatable=0;labelPosition=right;points=[];portConstraint=eastwest;strokeColor=inherit;" parent="FzabC8vqsWaqZOw50s2N-51" vertex="1">
          <mxGeometry y="74" width="225" height="8" as="geometry" />
        </mxCell>
        <mxCell id="Dz1jmlQof7M3VyDFqwy3-13" value="+&amp;nbsp;CreateReservation(Reservation&lt;span style=&quot;background-color: initial;&quot;&gt;): void&lt;/span&gt;" style="text;strokeColor=none;fillColor=none;align=left;verticalAlign=top;spacingLeft=4;spacingRight=4;overflow=hidden;rotatable=0;points=[[0,0.5],[1,0.5]];portConstraint=eastwest;whiteSpace=wrap;html=1;" vertex="1" parent="FzabC8vqsWaqZOw50s2N-51">
          <mxGeometry y="82" width="225" height="36" as="geometry" />
        </mxCell>
        <mxCell id="FzabC8vqsWaqZOw50s2N-54" value="+&amp;nbsp;getReservations&lt;span style=&quot;background-color: initial;&quot;&gt;(&lt;/span&gt;&lt;span style=&quot;background-color: initial;&quot;&gt;):&amp;nbsp;&lt;/span&gt;ArrayList&amp;lt;Reservation&amp;gt;" style="text;strokeColor=none;fillColor=none;align=left;verticalAlign=top;spacingLeft=4;spacingRight=4;overflow=hidden;rotatable=0;points=[[0,0.5],[1,0.5]];portConstraint=eastwest;whiteSpace=wrap;html=1;" parent="FzabC8vqsWaqZOw50s2N-51" vertex="1">
          <mxGeometry y="118" width="225" height="36" as="geometry" />
        </mxCell>
        <mxCell id="FzabC8vqsWaqZOw50s2N-59" value="Room" style="swimlane;fontStyle=1;align=center;verticalAlign=top;childLayout=stackLayout;horizontal=1;startSize=26;horizontalStack=0;resizeParent=1;resizeParentMax=0;resizeLast=0;collapsible=1;marginBottom=0;whiteSpace=wrap;html=1;" parent="1" vertex="1">
          <mxGeometry x="2760" y="-261" width="300" height="476" as="geometry" />
        </mxCell>
        <mxCell id="FzabC8vqsWaqZOw50s2N-60" value="- name: string" style="text;strokeColor=none;fillColor=none;align=left;verticalAlign=top;spacingLeft=4;spacingRight=4;overflow=hidden;rotatable=0;points=[[0,0.5],[1,0.5]];portConstraint=eastwest;whiteSpace=wrap;html=1;" parent="FzabC8vqsWaqZOw50s2N-59" vertex="1">
          <mxGeometry y="26" width="300" height="26" as="geometry" />
        </mxCell>
        <mxCell id="Dz1jmlQof7M3VyDFqwy3-14" value="- type: ERoomType" style="text;strokeColor=none;fillColor=none;align=left;verticalAlign=top;spacingLeft=4;spacingRight=4;overflow=hidden;rotatable=0;points=[[0,0.5],[1,0.5]];portConstraint=eastwest;whiteSpace=wrap;html=1;" vertex="1" parent="FzabC8vqsWaqZOw50s2N-59">
          <mxGeometry y="52" width="300" height="26" as="geometry" />
        </mxCell>
        <mxCell id="Dz1jmlQof7M3VyDFqwy3-15" value="- guestNumberMax: int" style="text;strokeColor=none;fillColor=none;align=left;verticalAlign=top;spacingLeft=4;spacingRight=4;overflow=hidden;rotatable=0;points=[[0,0.5],[1,0.5]];portConstraint=eastwest;whiteSpace=wrap;html=1;" vertex="1" parent="FzabC8vqsWaqZOw50s2N-59">
          <mxGeometry y="78" width="300" height="26" as="geometry" />
        </mxCell>
        <mxCell id="FzabC8vqsWaqZOw50s2N-83" value="- dailyPrice: int" style="text;strokeColor=none;fillColor=none;align=left;verticalAlign=top;spacingLeft=4;spacingRight=4;overflow=hidden;rotatable=0;points=[[0,0.5],[1,0.5]];portConstraint=eastwest;whiteSpace=wrap;html=1;" parent="FzabC8vqsWaqZOw50s2N-59" vertex="1">
          <mxGeometry y="104" width="300" height="26" as="geometry" />
        </mxCell>
        <mxCell id="FzabC8vqsWaqZOw50s2N-105" value="- reservation :&amp;nbsp;ArrayList&amp;lt;Reservation&amp;gt;" style="text;strokeColor=none;fillColor=none;align=left;verticalAlign=top;spacingLeft=4;spacingRight=4;overflow=hidden;rotatable=0;points=[[0,0.5],[1,0.5]];portConstraint=eastwest;whiteSpace=wrap;html=1;" parent="FzabC8vqsWaqZOw50s2N-59" vertex="1">
          <mxGeometry y="130" width="300" height="26" as="geometry" />
        </mxCell>
        <mxCell id="Dz1jmlQof7M3VyDFqwy3-17" value="- isReservation: bool" style="text;strokeColor=none;fillColor=none;align=left;verticalAlign=top;spacingLeft=4;spacingRight=4;overflow=hidden;rotatable=0;points=[[0,0.5],[1,0.5]];portConstraint=eastwest;whiteSpace=wrap;html=1;" vertex="1" parent="FzabC8vqsWaqZOw50s2N-59">
          <mxGeometry y="156" width="300" height="26" as="geometry" />
        </mxCell>
        <mxCell id="Dz1jmlQof7M3VyDFqwy3-16" value="- description: String" style="text;strokeColor=none;fillColor=none;align=left;verticalAlign=top;spacingLeft=4;spacingRight=4;overflow=hidden;rotatable=0;points=[[0,0.5],[1,0.5]];portConstraint=eastwest;whiteSpace=wrap;html=1;" vertex="1" parent="FzabC8vqsWaqZOw50s2N-59">
          <mxGeometry y="182" width="300" height="26" as="geometry" />
        </mxCell>
        <mxCell id="FzabC8vqsWaqZOw50s2N-61" value="" style="line;strokeWidth=1;fillColor=none;align=left;verticalAlign=middle;spacingTop=-1;spacingLeft=3;spacingRight=3;rotatable=0;labelPosition=right;points=[];portConstraint=eastwest;strokeColor=inherit;" parent="FzabC8vqsWaqZOw50s2N-59" vertex="1">
          <mxGeometry y="208" width="300" height="8" as="geometry" />
        </mxCell>
        <mxCell id="Dz1jmlQof7M3VyDFqwy3-27" value="+ getName(): String" style="text;strokeColor=none;fillColor=none;align=left;verticalAlign=top;spacingLeft=4;spacingRight=4;overflow=hidden;rotatable=0;points=[[0,0.5],[1,0.5]];portConstraint=eastwest;whiteSpace=wrap;html=1;" vertex="1" parent="FzabC8vqsWaqZOw50s2N-59">
          <mxGeometry y="216" width="300" height="26" as="geometry" />
        </mxCell>
        <mxCell id="Dz1jmlQof7M3VyDFqwy3-30" value="+ getType(): ERoomType" style="text;strokeColor=none;fillColor=none;align=left;verticalAlign=top;spacingLeft=4;spacingRight=4;overflow=hidden;rotatable=0;points=[[0,0.5],[1,0.5]];portConstraint=eastwest;whiteSpace=wrap;html=1;" vertex="1" parent="FzabC8vqsWaqZOw50s2N-59">
          <mxGeometry y="242" width="300" height="26" as="geometry" />
        </mxCell>
        <mxCell id="Dz1jmlQof7M3VyDFqwy3-29" value="+ getGuestNumberMax(): int" style="text;strokeColor=none;fillColor=none;align=left;verticalAlign=top;spacingLeft=4;spacingRight=4;overflow=hidden;rotatable=0;points=[[0,0.5],[1,0.5]];portConstraint=eastwest;whiteSpace=wrap;html=1;" vertex="1" parent="FzabC8vqsWaqZOw50s2N-59">
          <mxGeometry y="268" width="300" height="26" as="geometry" />
        </mxCell>
        <mxCell id="Dz1jmlQof7M3VyDFqwy3-28" value="+ getDailyPrice(): double" style="text;strokeColor=none;fillColor=none;align=left;verticalAlign=top;spacingLeft=4;spacingRight=4;overflow=hidden;rotatable=0;points=[[0,0.5],[1,0.5]];portConstraint=eastwest;whiteSpace=wrap;html=1;" vertex="1" parent="FzabC8vqsWaqZOw50s2N-59">
          <mxGeometry y="294" width="300" height="26" as="geometry" />
        </mxCell>
        <mxCell id="Dz1jmlQof7M3VyDFqwy3-26" value="+ getDescription(): String" style="text;strokeColor=none;fillColor=none;align=left;verticalAlign=top;spacingLeft=4;spacingRight=4;overflow=hidden;rotatable=0;points=[[0,0.5],[1,0.5]];portConstraint=eastwest;whiteSpace=wrap;html=1;" vertex="1" parent="FzabC8vqsWaqZOw50s2N-59">
          <mxGeometry y="320" width="300" height="26" as="geometry" />
        </mxCell>
        <mxCell id="Dz1jmlQof7M3VyDFqwy3-25" value="+ getIsReservatiom(): Boolean" style="text;strokeColor=none;fillColor=none;align=left;verticalAlign=top;spacingLeft=4;spacingRight=4;overflow=hidden;rotatable=0;points=[[0,0.5],[1,0.5]];portConstraint=eastwest;whiteSpace=wrap;html=1;" vertex="1" parent="FzabC8vqsWaqZOw50s2N-59">
          <mxGeometry y="346" width="300" height="26" as="geometry" />
        </mxCell>
        <mxCell id="Dz1jmlQof7M3VyDFqwy3-32" value="+ getReservations(): ArrayList&amp;lt;Reservation&amp;gt;" style="text;strokeColor=none;fillColor=none;align=left;verticalAlign=top;spacingLeft=4;spacingRight=4;overflow=hidden;rotatable=0;points=[[0,0.5],[1,0.5]];portConstraint=eastwest;whiteSpace=wrap;html=1;" vertex="1" parent="FzabC8vqsWaqZOw50s2N-59">
          <mxGeometry y="372" width="300" height="26" as="geometry" />
        </mxCell>
        <mxCell id="Dz1jmlQof7M3VyDFqwy3-33" value="+&amp;nbsp;calculateTotalPrice&lt;span style=&quot;background-color: initial;&quot;&gt;() :&amp;nbsp; double&lt;/span&gt;" style="text;strokeColor=none;fillColor=none;align=left;verticalAlign=top;spacingLeft=4;spacingRight=4;overflow=hidden;rotatable=0;points=[[0,0.5],[1,0.5]];portConstraint=eastwest;whiteSpace=wrap;html=1;" vertex="1" parent="FzabC8vqsWaqZOw50s2N-59">
          <mxGeometry y="398" width="300" height="26" as="geometry" />
        </mxCell>
        <mxCell id="Dz1jmlQof7M3VyDFqwy3-34" value="+ addReserve(Reservation) : void" style="text;strokeColor=none;fillColor=none;align=left;verticalAlign=top;spacingLeft=4;spacingRight=4;overflow=hidden;rotatable=0;points=[[0,0.5],[1,0.5]];portConstraint=eastwest;whiteSpace=wrap;html=1;" vertex="1" parent="FzabC8vqsWaqZOw50s2N-59">
          <mxGeometry y="424" width="300" height="26" as="geometry" />
        </mxCell>
        <mxCell id="FzabC8vqsWaqZOw50s2N-62" value="-&amp;nbsp;calculateValuesOfTypeRoom(ERoomType) : double" style="text;strokeColor=none;fillColor=none;align=left;verticalAlign=top;spacingLeft=4;spacingRight=4;overflow=hidden;rotatable=0;points=[[0,0.5],[1,0.5]];portConstraint=eastwest;whiteSpace=wrap;html=1;" parent="FzabC8vqsWaqZOw50s2N-59" vertex="1">
          <mxGeometry y="450" width="300" height="26" as="geometry" />
        </mxCell>
        <mxCell id="FzabC8vqsWaqZOw50s2N-63" value="Reservation" style="swimlane;fontStyle=1;align=center;verticalAlign=top;childLayout=stackLayout;horizontal=1;startSize=26;horizontalStack=0;resizeParent=1;resizeParentMax=0;resizeLast=0;collapsible=1;marginBottom=0;whiteSpace=wrap;html=1;" parent="1" vertex="1">
          <mxGeometry x="2205" y="-270" width="280" height="398" as="geometry" />
        </mxCell>
        <mxCell id="FzabC8vqsWaqZOw50s2N-146" value="- host: Host" style="text;strokeColor=none;fillColor=none;align=left;verticalAlign=top;spacingLeft=4;spacingRight=4;overflow=hidden;rotatable=0;points=[[0,0.5],[1,0.5]];portConstraint=eastwest;whiteSpace=wrap;html=1;" parent="FzabC8vqsWaqZOw50s2N-63" vertex="1">
          <mxGeometry y="26" width="280" height="26" as="geometry" />
        </mxCell>
        <mxCell id="Dz1jmlQof7M3VyDFqwy3-22" value="- idHost: int" style="text;strokeColor=none;fillColor=none;align=left;verticalAlign=top;spacingLeft=4;spacingRight=4;overflow=hidden;rotatable=0;points=[[0,0.5],[1,0.5]];portConstraint=eastwest;whiteSpace=wrap;html=1;" vertex="1" parent="FzabC8vqsWaqZOw50s2N-63">
          <mxGeometry y="52" width="280" height="26" as="geometry" />
        </mxCell>
        <mxCell id="Dz1jmlQof7M3VyDFqwy3-21" value="- room: Room" style="text;strokeColor=none;fillColor=none;align=left;verticalAlign=top;spacingLeft=4;spacingRight=4;overflow=hidden;rotatable=0;points=[[0,0.5],[1,0.5]];portConstraint=eastwest;whiteSpace=wrap;html=1;" vertex="1" parent="FzabC8vqsWaqZOw50s2N-63">
          <mxGeometry y="78" width="280" height="26" as="geometry" />
        </mxCell>
        <mxCell id="Dz1jmlQof7M3VyDFqwy3-23" value="- idRoom: int" style="text;strokeColor=none;fillColor=none;align=left;verticalAlign=top;spacingLeft=4;spacingRight=4;overflow=hidden;rotatable=0;points=[[0,0.5],[1,0.5]];portConstraint=eastwest;whiteSpace=wrap;html=1;" vertex="1" parent="FzabC8vqsWaqZOw50s2N-63">
          <mxGeometry y="104" width="280" height="26" as="geometry" />
        </mxCell>
        <mxCell id="FzabC8vqsWaqZOw50s2N-77" value="- checkIn: Date" style="text;strokeColor=none;fillColor=none;align=left;verticalAlign=top;spacingLeft=4;spacingRight=4;overflow=hidden;rotatable=0;points=[[0,0.5],[1,0.5]];portConstraint=eastwest;whiteSpace=wrap;html=1;" parent="FzabC8vqsWaqZOw50s2N-63" vertex="1">
          <mxGeometry y="130" width="280" height="26" as="geometry" />
        </mxCell>
        <mxCell id="FzabC8vqsWaqZOw50s2N-64" value="- checkOut: Date" style="text;strokeColor=none;fillColor=none;align=left;verticalAlign=top;spacingLeft=4;spacingRight=4;overflow=hidden;rotatable=0;points=[[0,0.5],[1,0.5]];portConstraint=eastwest;whiteSpace=wrap;html=1;" parent="FzabC8vqsWaqZOw50s2N-63" vertex="1">
          <mxGeometry y="156" width="280" height="26" as="geometry" />
        </mxCell>
        <mxCell id="Dz1jmlQof7M3VyDFqwy3-24" value="- daysTotal: int" style="text;strokeColor=none;fillColor=none;align=left;verticalAlign=top;spacingLeft=4;spacingRight=4;overflow=hidden;rotatable=0;points=[[0,0.5],[1,0.5]];portConstraint=eastwest;whiteSpace=wrap;html=1;" vertex="1" parent="FzabC8vqsWaqZOw50s2N-63">
          <mxGeometry y="182" width="280" height="26" as="geometry" />
        </mxCell>
        <mxCell id="FzabC8vqsWaqZOw50s2N-103" value="- guestNumbersToReserve: int" style="text;strokeColor=none;fillColor=none;align=left;verticalAlign=top;spacingLeft=4;spacingRight=4;overflow=hidden;rotatable=0;points=[[0,0.5],[1,0.5]];portConstraint=eastwest;whiteSpace=wrap;html=1;" parent="FzabC8vqsWaqZOw50s2N-63" vertex="1">
          <mxGeometry y="208" width="280" height="26" as="geometry" />
        </mxCell>
        <mxCell id="FzabC8vqsWaqZOw50s2N-140" value="- priceTotal: double" style="text;strokeColor=none;fillColor=none;align=left;verticalAlign=top;spacingLeft=4;spacingRight=4;overflow=hidden;rotatable=0;points=[[0,0.5],[1,0.5]];portConstraint=eastwest;whiteSpace=wrap;html=1;" parent="FzabC8vqsWaqZOw50s2N-63" vertex="1">
          <mxGeometry y="234" width="280" height="26" as="geometry" />
        </mxCell>
        <mxCell id="Dz1jmlQof7M3VyDFqwy3-36" value="- isActive: boolean" style="text;strokeColor=none;fillColor=none;align=left;verticalAlign=top;spacingLeft=4;spacingRight=4;overflow=hidden;rotatable=0;points=[[0,0.5],[1,0.5]];portConstraint=eastwest;whiteSpace=wrap;html=1;" vertex="1" parent="FzabC8vqsWaqZOw50s2N-63">
          <mxGeometry y="260" width="280" height="26" as="geometry" />
        </mxCell>
        <mxCell id="FzabC8vqsWaqZOw50s2N-147" value="- isCompleted: boolean" style="text;strokeColor=none;fillColor=none;align=left;verticalAlign=top;spacingLeft=4;spacingRight=4;overflow=hidden;rotatable=0;points=[[0,0.5],[1,0.5]];portConstraint=eastwest;whiteSpace=wrap;html=1;" parent="FzabC8vqsWaqZOw50s2N-63" vertex="1">
          <mxGeometry y="286" width="280" height="26" as="geometry" />
        </mxCell>
        <mxCell id="FzabC8vqsWaqZOw50s2N-65" value="" style="line;strokeWidth=1;fillColor=none;align=left;verticalAlign=middle;spacingTop=-1;spacingLeft=3;spacingRight=3;rotatable=0;labelPosition=right;points=[];portConstraint=eastwest;strokeColor=inherit;" parent="FzabC8vqsWaqZOw50s2N-63" vertex="1">
          <mxGeometry y="312" width="280" height="8" as="geometry" />
        </mxCell>
        <mxCell id="Dz1jmlQof7M3VyDFqwy3-35" value="+ cancel(): void" style="text;strokeColor=none;fillColor=none;align=left;verticalAlign=top;spacingLeft=4;spacingRight=4;overflow=hidden;rotatable=0;points=[[0,0.5],[1,0.5]];portConstraint=eastwest;whiteSpace=wrap;html=1;" vertex="1" parent="FzabC8vqsWaqZOw50s2N-63">
          <mxGeometry y="320" width="280" height="26" as="geometry" />
        </mxCell>
        <mxCell id="Dz1jmlQof7M3VyDFqwy3-38" value="+ finish&lt;span style=&quot;background-color: initial;&quot;&gt;(): void&lt;/span&gt;" style="text;strokeColor=none;fillColor=none;align=left;verticalAlign=top;spacingLeft=4;spacingRight=4;overflow=hidden;rotatable=0;points=[[0,0.5],[1,0.5]];portConstraint=eastwest;whiteSpace=wrap;html=1;" vertex="1" parent="FzabC8vqsWaqZOw50s2N-63">
          <mxGeometry y="346" width="280" height="26" as="geometry" />
        </mxCell>
        <mxCell id="Dz1jmlQof7M3VyDFqwy3-37" value="- calculateDayGap&lt;span style=&quot;background-color: initial;&quot;&gt;(): int&lt;/span&gt;" style="text;strokeColor=none;fillColor=none;align=left;verticalAlign=top;spacingLeft=4;spacingRight=4;overflow=hidden;rotatable=0;points=[[0,0.5],[1,0.5]];portConstraint=eastwest;whiteSpace=wrap;html=1;" vertex="1" parent="FzabC8vqsWaqZOw50s2N-63">
          <mxGeometry y="372" width="280" height="26" as="geometry" />
        </mxCell>
        <mxCell id="FzabC8vqsWaqZOw50s2N-84" value="Contact" style="swimlane;fontStyle=1;align=center;verticalAlign=top;childLayout=stackLayout;horizontal=1;startSize=26;horizontalStack=0;resizeParent=1;resizeParentMax=0;resizeLast=0;collapsible=1;marginBottom=0;whiteSpace=wrap;html=1;" parent="1" vertex="1">
          <mxGeometry x="1390" y="-571" width="220" height="190" as="geometry" />
        </mxCell>
        <mxCell id="FzabC8vqsWaqZOw50s2N-87" value="+ codePhone: string" style="text;strokeColor=none;fillColor=none;align=left;verticalAlign=top;spacingLeft=4;spacingRight=4;overflow=hidden;rotatable=0;points=[[0,0.5],[1,0.5]];portConstraint=eastwest;whiteSpace=wrap;html=1;" parent="FzabC8vqsWaqZOw50s2N-84" vertex="1">
          <mxGeometry y="26" width="220" height="26" as="geometry" />
        </mxCell>
        <mxCell id="FzabC8vqsWaqZOw50s2N-85" value="+ phone: string" style="text;strokeColor=none;fillColor=none;align=left;verticalAlign=top;spacingLeft=4;spacingRight=4;overflow=hidden;rotatable=0;points=[[0,0.5],[1,0.5]];portConstraint=eastwest;whiteSpace=wrap;html=1;" parent="FzabC8vqsWaqZOw50s2N-84" vertex="1">
          <mxGeometry y="52" width="220" height="26" as="geometry" />
        </mxCell>
        <mxCell id="FzabC8vqsWaqZOw50s2N-86" value="+ email: string" style="text;strokeColor=none;fillColor=none;align=left;verticalAlign=top;spacingLeft=4;spacingRight=4;overflow=hidden;rotatable=0;points=[[0,0.5],[1,0.5]];portConstraint=eastwest;whiteSpace=wrap;html=1;" parent="FzabC8vqsWaqZOw50s2N-84" vertex="1">
          <mxGeometry y="78" width="220" height="26" as="geometry" />
        </mxCell>
        <mxCell id="FzabC8vqsWaqZOw50s2N-89" value="" style="line;strokeWidth=1;fillColor=none;align=left;verticalAlign=middle;spacingTop=-1;spacingLeft=3;spacingRight=3;rotatable=0;labelPosition=right;points=[];portConstraint=eastwest;strokeColor=inherit;" parent="FzabC8vqsWaqZOw50s2N-84" vertex="1">
          <mxGeometry y="104" width="220" height="8" as="geometry" />
        </mxCell>
        <mxCell id="FzabC8vqsWaqZOw50s2N-90" value="+&amp;nbsp;setPhoneNumber&lt;span style=&quot;background-color: initial;&quot;&gt;(string): void&lt;/span&gt;" style="text;strokeColor=none;fillColor=none;align=left;verticalAlign=top;spacingLeft=4;spacingRight=4;overflow=hidden;rotatable=0;points=[[0,0.5],[1,0.5]];portConstraint=eastwest;whiteSpace=wrap;html=1;" parent="FzabC8vqsWaqZOw50s2N-84" vertex="1">
          <mxGeometry y="112" width="220" height="26" as="geometry" />
        </mxCell>
        <mxCell id="FzabC8vqsWaqZOw50s2N-99" value="+ getPhoneNumber&lt;span style=&quot;background-color: initial;&quot;&gt;():&amp;nbsp;&lt;/span&gt;String" style="text;strokeColor=none;fillColor=none;align=left;verticalAlign=top;spacingLeft=4;spacingRight=4;overflow=hidden;rotatable=0;points=[[0,0.5],[1,0.5]];portConstraint=eastwest;whiteSpace=wrap;html=1;" parent="FzabC8vqsWaqZOw50s2N-84" vertex="1">
          <mxGeometry y="138" width="220" height="26" as="geometry" />
        </mxCell>
        <mxCell id="Dz1jmlQof7M3VyDFqwy3-11" value="- isValidPhoneNumber&lt;span style=&quot;background-color: initial;&quot;&gt;(string): bool&lt;/span&gt;" style="text;strokeColor=none;fillColor=none;align=left;verticalAlign=top;spacingLeft=4;spacingRight=4;overflow=hidden;rotatable=0;points=[[0,0.5],[1,0.5]];portConstraint=eastwest;whiteSpace=wrap;html=1;" vertex="1" parent="FzabC8vqsWaqZOw50s2N-84">
          <mxGeometry y="164" width="220" height="26" as="geometry" />
        </mxCell>
        <mxCell id="FzabC8vqsWaqZOw50s2N-137" value="finish" style="text;html=1;align=center;verticalAlign=middle;resizable=0;points=[];autosize=1;strokeColor=none;fillColor=none;" parent="1" vertex="1">
          <mxGeometry x="1635" y="320" width="50" height="30" as="geometry" />
        </mxCell>
        <mxCell id="Dz1jmlQof7M3VyDFqwy3-20" style="edgeStyle=orthogonalEdgeStyle;rounded=0;orthogonalLoop=1;jettySize=auto;html=1;" edge="1" parent="1" source="FzabC8vqsWaqZOw50s2N-140" target="FzabC8vqsWaqZOw50s2N-59">
          <mxGeometry relative="1" as="geometry" />
        </mxCell>
        <mxCell id="Dz1jmlQof7M3VyDFqwy3-59" value="0..n" style="text;html=1;align=center;verticalAlign=middle;resizable=0;points=[];autosize=1;strokeColor=none;fillColor=none;" vertex="1" parent="1">
          <mxGeometry x="2480" y="-52" width="40" height="30" as="geometry" />
        </mxCell>
        <mxCell id="Dz1jmlQof7M3VyDFqwy3-60" value="1..1" style="text;html=1;align=center;verticalAlign=middle;resizable=0;points=[];autosize=1;strokeColor=none;fillColor=none;" vertex="1" parent="1">
          <mxGeometry x="2720" y="-52" width="40" height="30" as="geometry" />
        </mxCell>
        <mxCell id="Dz1jmlQof7M3VyDFqwy3-61" value="0..n" style="text;html=1;align=center;verticalAlign=middle;resizable=0;points=[];autosize=1;strokeColor=none;fillColor=none;" vertex="1" parent="1">
          <mxGeometry x="2165" y="-100" width="40" height="30" as="geometry" />
        </mxCell>
        <mxCell id="Dz1jmlQof7M3VyDFqwy3-62" value="1..1" style="text;html=1;align=center;verticalAlign=middle;resizable=0;points=[];autosize=1;strokeColor=none;fillColor=none;" vertex="1" parent="1">
          <mxGeometry x="2000" y="-100" width="40" height="30" as="geometry" />
        </mxCell>
      </root>
    </mxGraphModel>
  </diagram>
</mxfile>
